<?xml version="1.0" standalone="no"?>
<!DOCTYPE svg PUBLIC "-//W3C//DTD SVG 20010904//EN"
 "http://www.w3.org/TR/2001/REC-SVG-20010904/DTD/svg10.dtd">
<svg version="1.0" xmlns="http://www.w3.org/2000/svg"
 width="512.000000pt" height="512.000000pt" viewBox="0 0 512.000000 512.000000"
 preserveAspectRatio="xMidYMid meet">

<g transform="translate(0.000000,512.000000) scale(0.100000,-0.100000)"
fill="#000000" stroke="none">
<path d="M1821 4434 c-17 -14 -45 -55 -63 -92 -28 -57 -33 -76 -33 -142 1
-100 32 -170 113 -248 77 -73 96 -111 90 -174 -4 -35 -14 -60 -37 -88 -42 -52
-48 -88 -22 -122 45 -56 107 -41 160 39 65 98 77 216 32 319 -12 27 -52 79
-90 119 -105 108 -115 177 -41 270 37 47 39 87 5 120 -32 33 -75 32 -114 -1z"/>
<path d="M2366 4429 c-19 -17 -48 -56 -63 -87 -23 -48 -28 -70 -28 -137 0
-106 30 -173 114 -253 107 -102 118 -187 36 -284 -14 -16 -25 -41 -25 -55 0
-29 50 -83 78 -83 39 0 86 45 122 114 32 62 35 77 35 150 0 105 -22 153 -114
249 -104 111 -115 174 -46 271 41 58 44 88 10 121 -34 35 -76 33 -119 -6z"/>
<path d="M3689 3575 c-66 -36 -125 -176 -116 -275 7 -84 36 -139 120 -229 63
-67 77 -88 82 -124 8 -50 -10 -101 -50 -149 -41 -49 -31 -105 25 -128 85 -35
183 98 184 250 1 100 -29 165 -123 264 -97 103 -106 166 -36 255 43 54 44 83
6 122 -33 32 -53 35 -92 14z"/>
<path d="M4210 3551 c-55 -58 -82 -122 -88 -205 -6 -106 21 -169 114 -267 83
-87 102 -132 84 -199 -6 -22 -24 -55 -40 -74 -38 -43 -40 -87 -5 -121 55 -56
129 -13 184 105 20 43 25 71 25 130 0 100 -32 171 -112 249 -68 65 -92 106
-92 155 0 46 15 82 50 123 38 42 39 85 5 118 -38 38 -80 34 -125 -14z"/>
<path d="M2514 3080 c-73 -11 -151 -49 -214 -105 -69 -62 -121 -85 -190 -85
-69 0 -121 23 -190 85 -30 26 -79 60 -109 74 -50 23 -68 26 -166 26 -102 0
-114 -2 -165 -29 -114 -59 -177 -137 -215 -261 -29 -95 -56 -140 -104 -172
-60 -41 -103 -48 -205 -36 -57 7 -111 8 -144 3 -240 -40 -385 -278 -312 -512
11 -34 20 -87 20 -116 0 -106 -50 -172 -175 -232 -96 -46 -164 -109 -208 -194
-30 -58 -32 -67 -32 -171 0 -94 3 -117 23 -160 28 -60 73 -109 127 -138 40
-22 46 -22 682 -25 l641 -3 -29 -57 c-71 -139 -54 -297 43 -389 70 -68 -56
-63 1675 -63 1495 0 1570 1 1608 19 55 25 109 88 130 151 28 84 18 198 -25
278 -41 77 -78 111 -179 162 -86 43 -125 81 -141 138 -14 51 -13 64 11 144 26
85 22 188 -9 261 -28 62 -104 142 -167 175 -48 26 -57 27 -200 27 -165 1 -190
7 -238 65 -14 16 -37 67 -51 113 -15 45 -39 100 -56 121 -41 54 -119 110 -174
126 -42 11 -50 19 -72 63 -36 70 -109 144 -174 177 -83 42 -154 52 -265 38
-103 -13 -145 -6 -206 35 -48 32 -75 77 -104 172 -62 204 -241 324 -441 295z
m-758 -185 c27 -14 69 -43 92 -65 50 -45 55 -40 -67 -60 -82 -15 -217 -54
-309 -91 -41 -16 -75 -29 -77 -29 -8 0 39 130 61 168 56 96 193 131 300 77z
m921 4 c61 -30 98 -80 132 -180 l29 -87 -57 25 c-119 54 -358 123 -423 123
-16 0 -28 3 -28 8 0 12 115 101 151 117 51 22 144 19 196 -6z m-286 -288 c279
-56 544 -191 731 -372 86 -83 75 -89 -21 -11 -86 70 -130 86 -236 87 -77 0
-98 -4 -145 -26 -104 -49 -164 -120 -201 -239 -27 -88 -45 -117 -91 -147 -40
-27 -44 -28 -192 -28 -139 0 -154 -2 -196 -24 -76 -40 -125 -86 -160 -152 -43
-81 -52 -185 -25 -282 22 -80 21 -136 -5 -187 l-20 -40 -631 0 -630 0 7 53
c49 421 220 758 513 1014 241 211 543 342 866 377 86 9 342 -4 436 -23z
m-1429 -197 l47 -6 -97 -97 c-53 -53 -126 -134 -161 -181 -35 -47 -67 -86 -71
-88 -9 -4 -40 110 -40 150 0 106 78 202 185 229 29 7 41 7 137 -7z m2487 -12
c35 -16 101 -76 101 -91 0 -5 -14 -14 -31 -22 -18 -7 -53 -29 -79 -50 l-48
-38 -103 104 -104 104 65 6 c36 4 70 8 75 10 18 6 90 -7 124 -23z m-528 -254
c37 -11 119 -71 119 -87 0 -4 -33 -13 -72 -19 -40 -7 -125 -30 -188 -51 -63
-21 -116 -38 -117 -37 -1 1 5 26 14 55 33 113 136 172 244 139z m839 -18 c21
-11 47 -32 58 -47 21 -30 57 -131 49 -139 -2 -3 -39 9 -82 26 -78 31 -254 80
-289 80 -19 0 -19 0 0 21 76 84 172 106 264 59z m-236 -250 c466 -102 838
-440 980 -889 27 -85 56 -232 56 -282 l0 -29 -1310 0 c-1261 0 -1310 1 -1310
18 0 51 35 219 65 309 150 452 539 794 1000 878 123 22 141 23 285 20 91 -2
168 -11 234 -25z m-1259 -166 c13 -5 -2 -25 -68 -93 -46 -47 -103 -112 -127
-145 l-44 -58 -12 33 c-51 140 34 268 178 269 31 0 64 -3 73 -6z m2177 -23
c79 -55 104 -138 73 -244 -9 -32 -18 -57 -20 -55 -2 2 -31 41 -65 87 -34 47
-95 117 -135 157 -71 71 -72 73 -46 77 14 3 56 4 92 3 51 -1 74 -7 101 -25z
m-3966 -106 c-22 -59 -66 -302 -66 -369 0 -21 -5 -26 -25 -26 -14 0 -41 6 -59
14 -40 17 -66 73 -66 144 0 108 42 172 143 222 71 34 81 36 73 15z m4264 -605
c93 -47 134 -127 116 -225 -10 -52 -37 -75 -90 -75 l-43 0 -6 73 c-6 65 -25
171 -43 235 -8 28 -5 28 66 -8z m-2915 -7 c-18 -72 -35 -164 -41 -225 -6 -64
-8 -68 -31 -68 -49 0 -67 19 -83 89 -10 41 9 122 36 153 21 23 103 78 117 78
5 0 6 -12 2 -27z"/>
</g>
</svg>
